<svg width="684" height="110" viewBox="0 0 684 110" fill="none" xmlns="http://www.w3.org/2000/svg">
<path d="M314.723 72.0107L302.082 73.4521L306.103 108.72L297.36 109.717L293.34 74.4482L280.671 75.8926L279.821 68.4375L313.873 64.5557L314.723 72.0107ZM359.729 102.607L350.958 103.607L348.944 85.9443L331.152 87.9727L333.166 105.635L324.423 106.632L319.553 63.9082L328.296 62.9121L330.306 80.5459L348.098 78.5176L346.087 60.8838L354.857 59.8838L359.729 102.607ZM63 106H0.125V100.224L63 92.8213V106ZM98.125 106H78.5V90.9961L98.125 88.6855V106ZM156.375 106H139.312L125.159 85.5029L156.375 81.8271V106ZM250.17 70.7852C249.279 75.7834 247.765 80.3136 245.625 84.375C242 91.3333 236.792 96.6875 230 100.438C223.208 104.146 215.083 106 205.625 106H172.625V79.9141L192.25 77.6035V89.125H204.75C213.542 89.125 220.208 86.7708 224.75 82.0625C226.954 79.7772 228.621 76.8186 229.756 73.1885L250.17 70.7852ZM437.75 89.75H477.688V106H418.125V49.2539L437.75 46.4561V89.75ZM510.5 106H490.875V38.8838L510.5 36.0859V106ZM604.625 106H587.562L547.125 47.4375H546.375V106H526.75V33.7695L555.523 29.668L584.188 71.4375H585V25.4658L604.625 22.668V106ZM683.625 29.125H640.5V51H680.312V66.9375H640.5V89.75H683.75V106H620.875V20.3516L673.329 12.875H683.625V29.125ZM390.901 63.3271L371.689 65.5166L372.833 75.5527L390.569 73.5312L391.403 80.8428L373.667 82.8643L374.86 93.3301L394.127 91.1338L394.978 98.5889L366.967 101.782L362.097 59.0586L390.051 55.8721L390.901 63.3271ZM62.875 29.125H19.75V51H59.5625V66.9375H19.75V89.75H42.1562L0.125 95.7588V12.875H62.875V29.125ZM135.938 71.4375H136.75V12.875H156.375V73.4209L120.37 78.5684L98.875 47.4375H98.125V81.748L78.5 84.5537V12.875H95.75L135.938 71.4375ZM205.875 12.875C215.25 12.875 223.312 14.75 230.062 18.5C236.812 22.2083 242 27.5417 245.625 34.5C249.292 41.4167 251.125 49.7083 251.125 59.375C251.125 59.5424 251.123 59.7094 251.122 59.876L231.479 62.6836C231.534 61.6147 231.562 60.5119 231.562 59.375C231.562 49.0417 229.292 41.5208 224.75 36.8125C220.208 32.1042 213.542 29.75 204.75 29.75H192.25V68.292L172.625 71.0977V12.875H205.875ZM293.181 6.52637C296.992 6.09188 300.509 6.57862 303.731 7.9873C306.973 9.39393 309.669 11.6625 311.82 14.792C313.971 17.9214 315.318 21.8628 315.859 26.6162C316.401 31.3696 315.976 35.5127 314.585 39.0459C313.191 42.5596 311.074 45.3667 308.232 47.4668C305.408 49.5452 302.089 50.8018 298.277 51.2363C294.466 51.6707 290.94 51.1848 287.698 49.7783C284.457 48.3717 281.76 46.104 279.609 42.9746C277.459 39.8451 276.115 35.9226 275.577 31.208C275.035 26.4546 275.46 22.3115 276.852 18.7783C278.243 15.2451 280.359 12.4282 283.201 10.3281C286.043 8.22814 289.369 6.96092 293.181 6.52637ZM349.469 8.39844L330.064 10.6104L331.427 22.5625L348.926 20.5674L349.775 28.0195L332.276 30.0137L334.162 46.5537L325.095 47.5879L320.131 4.0459L348.604 0.799805L349.469 8.39844ZM302.438 17.4297C300.176 15.2014 297.399 14.2743 294.107 14.6494C290.796 15.0269 288.279 16.5573 286.557 19.2402C284.851 21.9015 284.263 25.5411 284.789 30.1582C285.313 34.7558 286.705 38.159 288.966 40.3682C291.245 42.5751 294.041 43.4897 297.352 43.1123C300.643 42.737 303.142 41.2189 304.848 38.5576C306.572 35.8942 307.172 32.2635 306.647 27.666C306.121 23.049 304.718 19.6366 302.438 17.4297ZM437.75 35.5947L418.125 37.8975V12.875H437.75V35.5947ZM510.5 27.0586L490.875 29.3613V12.875H510.5V27.0586ZM550.512 22.3643L526.75 25.1523V12.875H544L550.512 22.3643ZM604.625 16.0146L585 18.3174V12.875H604.625V16.0146ZM620.875 14.1074V12.875H631.386L620.875 14.1074Z" fill="#EDEDED"/>
</svg>
