<svg width="150" height="31" viewBox="0 0 150 31" fill="none" xmlns="http://www.w3.org/2000/svg">
<path d="M4.94884 5.28064V13.6398H6.99764C8.38706 13.6398 9.50565 13.2502 10.3534 12.4709C11.2248 11.6917 11.6604 10.6881 11.6604 9.46023C11.6604 8.1851 11.2012 7.16972 10.2828 6.41409C9.3879 5.65846 8.28108 5.28064 6.96232 5.28064H4.94884ZM1.06319 27.737V2.09283H6.53843C9.435 2.09283 11.6369 2.77762 13.144 4.1472C14.6512 5.49317 15.4048 7.22876 15.4048 9.35397C15.4048 11.1014 14.8749 12.6008 13.8152 13.8523C12.7555 15.0802 11.3072 15.8477 9.47033 16.1546L17.3476 26.6036L13.7799 28.2329L5.01949 16.0484H4.94884V27.4537L1.06319 27.737Z" fill="#C72222"/>
<path d="M18.7252 27.737V2.23451L22.6109 1.95115V27.4537L18.7252 27.737Z" fill="#C72222"/>
<path d="M42.4164 1.95115L43.1229 5.91821C41.9925 5.35148 40.6973 5.06812 39.2372 5.06812C38.0833 5.06812 36.9294 5.28064 35.7755 5.70569C34.6215 6.10712 33.5618 6.73287 32.5963 7.58296C31.6543 8.40943 30.9007 9.43661 30.3355 10.6645C29.7704 11.8688 29.4878 13.2384 29.4878 14.7733C29.4878 16.1428 29.7468 17.4298 30.2649 18.6341C30.783 19.8383 31.5012 20.8891 32.4197 21.7865C33.3616 22.6838 34.4685 23.3804 35.7401 23.8762C37.0118 24.3721 38.3777 24.6201 39.8377 24.6201C40.8504 24.6201 41.9454 24.4666 43.1229 24.1596L42.4164 28.0558C41.5451 28.1739 40.5442 28.2329 39.4138 28.2329C37.2708 28.2329 35.328 27.9023 33.5854 27.2412C31.8663 26.5564 30.4062 25.6118 29.2052 24.4075C28.0277 23.1796 27.1328 21.751 26.5205 20.1217C25.9083 18.4924 25.6021 16.7568 25.6021 14.9149C25.6021 13.0259 25.9083 11.2667 26.5205 9.63733C27.1564 7.98438 28.0513 6.54396 29.2052 5.31607C30.3826 4.08816 31.7956 3.14363 33.4441 2.48245C35.0925 1.79766 36.8941 1.45526 38.8487 1.45526C39.5316 1.45526 40.191 1.50249 40.8268 1.59694C41.4626 1.66779 41.9925 1.78585 42.4164 1.95115Z" fill="#C72222"/>
<path d="M63.1908 27.737V16.2255H49.4144V27.4537L45.5288 27.737V2.23451L49.4144 1.95115V12.896H63.1908V2.23451L67.0765 1.95115V27.4537L63.1908 27.737Z" fill="#C72222"/>
<path d="M79.4286 28.5517L68.1249 2.09283H72.2931L79.4286 19.2362L86.882 2.09283H90.9089L79.4286 28.5517Z" fill="#C72222"/>
<path d="M91.9606 27.737V2.23451L95.8463 1.95115V27.4537L91.9606 27.737Z" fill="#C72222"/>
<path d="M99.7913 27.5954V2.23451L103.677 1.95115V23.9825H115.157L113.674 27.5954H99.7913Z" fill="#C72222"/>
<path d="M116.798 27.5954V2.23451L120.684 1.95115V23.9825H132.164L130.68 27.5954H116.798Z" fill="#C72222"/>
<path d="M133.804 27.5954V2.09283H146.309L147.228 5.56401H137.69V12.896H145.355V16.2255H137.69V24.1242H148.464L146.98 27.5954H133.804Z" fill="#C72222"/>
<path fill-rule="evenodd" clip-rule="evenodd" d="M10.1183 12.2066C10.9104 11.4982 11.3072 10.5928 11.3072 9.46023C11.3072 8.28262 10.889 7.37103 10.0587 6.68791L10.0552 6.68504C9.23216 5.99005 8.20909 5.63485 6.96232 5.63485H5.30209V13.2856H6.99764C8.31807 13.2856 9.34511 12.9172 10.1147 12.2098L10.1183 12.2066ZM4.94884 13.6398V5.28064H6.96232C8.28108 5.28064 9.3879 5.65846 10.2828 6.41409C11.2012 7.16972 11.6604 8.1851 11.6604 9.46023C11.6604 10.6881 11.2248 11.6917 10.3534 12.4709C9.50565 13.2502 8.38706 13.6398 6.99764 13.6398H4.94884ZM0.709954 28.1179V1.73863H6.53843C9.48505 1.73863 11.7851 2.43491 13.3801 3.88373C14.966 5.30049 15.758 7.13399 15.758 9.35397C15.758 11.1795 15.2021 12.7617 14.0845 14.0816L14.0823 14.0841C13.0738 15.2527 11.7373 16.0189 10.0928 16.393L17.8953 26.7427L13.6627 28.6756L5.30209 17.0471V27.7831L0.709954 28.1179ZM4.94884 16.0484H5.01949L13.7799 28.2329L17.3476 26.6036L9.47033 16.1546C9.6016 16.1327 9.73089 16.1084 9.8582 16.0818C11.5122 15.7356 12.8312 14.9925 13.8152 13.8523C14.8749 12.6008 15.4048 11.1014 15.4048 9.35397C15.4048 7.22876 14.6512 5.49317 13.144 4.1472C11.6369 2.77762 9.435 2.09283 6.53843 2.09283H1.06319V27.737L4.94884 27.4537V16.0484ZM18.372 28.1179V1.90513L22.9641 1.57025V27.7831L18.372 28.1179ZM42.7293 1.69311L43.5943 6.55058L42.9649 6.23501C41.8907 5.69644 40.651 5.42232 39.2372 5.42232C38.1275 5.42232 37.0147 5.62655 35.8973 6.03816L35.8913 6.04038C34.7827 6.42602 33.7624 7.02765 32.8294 7.84912C31.9275 8.64037 31.2023 9.62664 30.6563 10.8129L30.6552 10.8153C30.1153 11.9657 29.841 13.2826 29.841 14.7733C29.841 16.0968 30.0911 17.3357 30.5892 18.4938C31.0891 19.6556 31.7806 20.6671 32.6645 21.5311C33.5712 22.3944 34.6378 23.0664 35.8682 23.5461C37.0962 24.025 38.4184 24.2659 39.8377 24.2659C40.8151 24.2659 41.8799 24.1177 43.034 23.8168L43.5694 23.6772L42.718 28.3724L42.4637 28.4068C41.573 28.5275 40.5558 28.5871 39.4138 28.5871C37.2345 28.5871 35.2485 28.2509 33.4604 27.5724L33.4549 27.5704C31.6951 26.8694 30.1934 25.8993 28.9554 24.658L28.9505 24.6531C27.7391 23.3898 26.8188 21.9199 26.19 20.2466C25.5619 18.5751 25.2489 16.797 25.2489 14.9149C25.2489 12.9868 25.5615 11.1849 26.19 9.51243L26.191 9.50986C26.8424 7.81627 27.7612 6.33612 28.9481 5.07315L28.9505 5.07057C30.1639 3.80526 31.6188 2.83334 33.3109 2.15438C35.0056 1.45071 36.8529 1.10106 38.8487 1.10106C39.5456 1.10106 40.2202 1.1491 40.8722 1.24562C41.5245 1.31869 42.0845 1.44168 42.5444 1.62103L42.7293 1.69311ZM40.8268 1.59694C40.191 1.50249 39.5316 1.45526 38.8487 1.45526C36.8941 1.45526 35.0925 1.79766 33.4441 2.48245C31.7956 3.14363 30.3826 4.08816 29.2052 5.31607C28.0513 6.54396 27.1564 7.98438 26.5205 9.63733C25.9083 11.2667 25.6021 13.0259 25.6021 14.9149C25.6021 16.7568 25.9083 18.4924 26.5205 20.1217C27.1328 21.751 28.0277 23.1796 29.2052 24.4075C30.4062 25.6118 31.8663 26.5564 33.5854 27.2412C35.328 27.9023 37.2708 28.2329 39.4138 28.2329C40.5442 28.2329 41.5451 28.1739 42.4164 28.0558L43.1229 24.1596C42.9966 24.1925 42.8713 24.2237 42.7469 24.2531C41.7115 24.4977 40.7418 24.6201 39.8377 24.6201C38.3777 24.6201 37.0118 24.3721 35.7401 23.8762C34.4685 23.3804 33.3616 22.6838 32.4197 21.7865C31.5012 20.8891 30.783 19.8383 30.2649 18.6341C29.7468 17.4298 29.4878 16.1428 29.4878 14.7733C29.4878 13.2384 29.7704 11.8688 30.3355 10.6645C30.9007 9.43661 31.6543 8.40943 32.5963 7.58296C33.5618 6.73287 34.6215 6.10712 35.7755 5.70569C36.9294 5.28064 38.0833 5.06812 39.2372 5.06812C40.5316 5.06812 41.6964 5.29081 42.7316 5.7362C42.8642 5.79322 42.9946 5.85389 43.1229 5.91821L42.4164 1.95115C41.9925 1.78585 41.4626 1.66779 40.8268 1.59694ZM62.8376 28.1179V16.5797H49.7677V27.7831L45.1755 28.1179V1.90513L49.7677 1.57025V12.5418H62.8376V1.90513L67.4297 1.57025V27.7831L62.8376 28.1179ZM63.1908 12.896H49.4144V1.95115L45.5288 2.23451V27.737L49.4144 27.4537V16.2255H63.1908V27.737L67.0765 27.4537V1.95115L63.1908 2.23451V12.896ZM79.4261 29.4453L67.5893 1.73863H72.5285L79.4357 18.3336L86.6506 1.73863H91.4478L79.4261 29.4453ZM79.4286 19.2362L72.2931 2.09283H68.1249L79.4286 28.5517L90.9089 2.09283H86.882L79.4286 19.2362ZM91.6074 28.1179V1.90513L96.1995 1.57025V27.7831L91.6074 28.1179ZM99.438 27.9496V1.90513L104.03 1.57025V23.6283H115.685L113.91 27.9496H99.438ZM103.677 23.9825V1.95115L99.7913 2.23451V27.5954H113.674L115.157 23.9825H103.677ZM116.445 27.9496V1.90513L121.037 1.57025V23.6283H132.691L130.917 27.9496H116.445ZM120.684 23.9825V1.95115L116.798 2.23451V27.5954H130.68L132.164 23.9825H120.684ZM133.451 27.9496V1.73863H146.581L147.687 5.91821H138.043V12.5418H145.709V16.5797H138.043V23.77H149L147.213 27.9496H133.451ZM137.69 24.1242V16.2255H145.355V12.896H137.69V5.56401H147.228L146.309 2.09283H133.804V27.5954H146.98L148.464 24.1242H137.69ZM18.7252 27.737L22.6109 27.4537V1.95115L18.7252 2.23451V27.737ZM91.9606 27.737L95.8463 27.4537V1.95115L91.9606 2.23451V27.737Z" fill="#C72222"/>
<path fill-rule="evenodd" clip-rule="evenodd" d="M10.0552 6.68504C9.23216 5.99005 8.20909 5.63485 6.96232 5.63485H5.30209V13.2856H6.99764C8.31807 13.2856 9.34511 12.9172 10.1147 12.2098L10.1183 12.2066C10.9104 11.4982 11.3072 10.5928 11.3072 9.46023C11.3072 8.28262 10.889 7.37103 10.0587 6.68791L10.0552 6.68504ZM5.8315 12.7542H6.99764C8.2147 12.7542 9.10466 12.4177 9.75721 11.8179L9.75986 11.8155L9.76613 11.8098C10.4395 11.2076 10.7778 10.4494 10.7778 9.46023C10.7778 8.42925 10.4213 7.67337 9.72312 7.09893L9.7144 7.09176C8.99891 6.4876 8.10127 6.16627 6.96232 6.16627H5.8315V12.7542ZM0.709954 28.1179V1.73863H6.53843C9.48505 1.73863 11.7851 2.43491 13.3801 3.88373C14.966 5.30049 15.758 7.13399 15.758 9.35397C15.758 11.1795 15.2021 12.7617 14.0845 14.0816L14.0823 14.0841C14.0824 14.084 14.0822 14.0842 14.0823 14.0841C13.1898 15.1182 12.0401 15.8375 10.6478 16.2484C10.4669 16.3018 10.2819 16.35 10.0928 16.393L17.8953 26.7427L13.6627 28.6756L5.30209 17.0471V27.7831L0.709954 28.1179ZM5.8315 18.6915V28.2773L0.180542 28.6894V1.2072H6.53843C9.5599 1.2072 12.0069 1.92065 13.7337 3.48819C15.4375 5.01116 16.2874 6.99161 16.2874 9.35397C16.2874 11.2969 15.6923 13.0034 14.4878 14.4258L14.4863 14.4276L14.4841 14.4301L14.4824 14.4321C13.5585 15.5026 12.3837 16.2541 10.9879 16.6997L17.8426 25.7921V1.41091L23.4935 0.998812V28.2773L17.8426 28.6894V27.3506L13.4872 29.3396L5.8315 18.6915ZM18.372 28.1179L22.9641 27.7831V1.57025L18.372 1.90513V28.1179ZM42.7293 1.69311L43.5943 6.55058L42.9649 6.23501C42.8429 6.17387 42.7188 6.11613 42.5926 6.06182C41.6069 5.63773 40.4905 5.42232 39.2372 5.42232C38.1275 5.42232 37.0147 5.62655 35.8973 6.03816L35.8913 6.04038C34.7827 6.42602 33.7624 7.02765 32.8294 7.84912C31.9275 8.64037 31.2023 9.62664 30.6563 10.8129L30.6552 10.8153C30.1153 11.9657 29.841 13.2826 29.841 14.7733C29.841 16.0968 30.0911 17.3357 30.5892 18.4938C31.0891 19.6556 31.7806 20.6671 32.6645 21.5311C33.5712 22.3944 34.6378 23.0664 35.8682 23.5461C37.0962 24.025 38.4184 24.2659 39.8377 24.2659C40.7103 24.2659 41.6527 24.1477 42.666 23.9083C42.778 23.8818 42.8909 23.8539 43.0046 23.8244C43.0144 23.8219 43.0242 23.8194 43.034 23.8168L43.5694 23.6772L42.718 28.3724L42.4637 28.4068C41.573 28.5275 40.5558 28.5871 39.4138 28.5871C37.2345 28.5871 35.2485 28.2509 33.4604 27.5724L33.4549 27.5704C31.6951 26.8694 30.1934 25.8993 28.9554 24.658L28.9505 24.6531C27.7391 23.3898 26.8188 21.9199 26.19 20.2466C25.5619 18.5751 25.2489 16.797 25.2489 14.9149C25.2489 12.9868 25.5615 11.1849 26.19 9.51243L26.191 9.50986C26.8424 7.81627 27.7612 6.33612 28.9481 5.07315L28.9505 5.07057C30.1639 3.80526 31.6188 2.83334 33.3109 2.15438C35.0056 1.45071 36.8529 1.10106 38.8487 1.10106C39.5456 1.10106 40.2202 1.1491 40.8722 1.24562C41.5245 1.31869 42.0845 1.44168 42.5444 1.62103L42.7293 1.69311ZM33.1114 1.66212C31.3541 2.36773 29.8362 3.38066 28.5691 4.70201L28.5672 4.70402L28.5648 4.70661L28.563 4.70849C27.3267 6.02405 26.372 7.56381 25.6971 9.31842L25.6947 9.32487C25.6947 9.32479 25.6946 9.32495 25.6947 9.32487C25.0418 11.0622 24.7195 12.9283 24.7195 14.9149C24.7195 16.8573 25.0427 18.6993 25.6947 20.4342C26.3482 22.1734 27.3067 23.7052 28.5691 25.0216L28.5813 25.034C29.8746 26.3309 31.4389 27.3391 33.2597 28.0643L33.2732 28.0695C35.1294 28.7738 37.18 29.1186 39.4138 29.1186C40.5732 29.1186 41.6148 29.0581 42.5345 28.9335L43.17 28.8474L44.2387 22.9537L42.9009 23.3024C41.7819 23.5942 40.7622 23.7344 39.8377 23.7344C38.4793 23.7344 37.2226 23.5042 36.0599 23.0508C34.8915 22.5952 33.8851 21.9602 33.0314 21.148C32.1993 20.334 31.5478 19.3814 31.0753 18.2831C30.607 17.1945 30.3704 16.0276 30.3704 14.7733C30.3704 13.3489 30.6322 12.1113 31.1341 11.0418L31.1369 11.0358C31.6541 9.91202 32.3361 8.98772 33.1778 8.24925L33.1785 8.24865C34.0627 7.47009 35.024 6.90453 36.0646 6.5425L36.0796 6.53708C37.1425 6.14556 38.1937 5.95375 39.2372 5.95375C40.5816 5.95375 41.7382 6.21403 42.7283 6.71044L44.301 7.49891L43.1981 1.30581L42.7361 1.12566C42.2224 0.925361 41.6174 0.794948 40.9402 0.718519C40.264 0.618898 39.5666 0.569633 38.8487 0.569633C36.7912 0.569633 34.8753 0.930161 33.1114 1.66212ZM62.8376 16.5797H49.7677V27.7831L45.1755 28.1179V1.90513L49.7677 1.57025V12.5418H62.8376V1.90513L67.4297 1.57025V27.7831L62.8376 28.1179V16.5797ZM67.9591 1.2072V0.998812L62.3082 1.41091V12.0104H50.2971V0.998812L44.6461 1.41091V28.6894L50.2971 28.2773V17.1111H62.3082V28.6894L67.9591 28.2773V3.95271L79.4223 30.7849L91.078 3.92186V28.6894L96.7289 28.2773V0.998812L92.2031 1.32886L92.2558 1.2072H86.304L79.4463 16.9806L72.881 1.2072H67.9591ZM67.5893 1.73863H72.5285L79.4357 18.3336L86.6506 1.73863H91.4478L79.4261 29.4453L67.5893 1.73863ZM91.6074 1.90513V28.1179L96.1995 27.7831V1.57025L91.6074 1.90513ZM99.438 27.9496V1.90513L104.03 1.57025V23.6283H115.685L113.91 27.9496H99.438ZM104.56 23.0969V0.998812L98.9086 1.41091V28.481H114.265L115.915 24.4614V28.481H131.271L132.922 24.4614V28.481H147.562L149.803 23.2386H138.573V17.1111H146.238V12.0104H138.573V6.44964H148.375L146.988 1.2072H132.922V23.0969H121.566V0.998812L115.915 1.41091V23.0969H104.56ZM116.445 1.90513L121.037 1.57025V23.6283H132.691L130.917 27.9496H116.445V1.90513ZM133.451 1.73863H146.581L147.687 5.91821H138.043V12.5418H145.709V16.5797H138.043V23.77H149L147.213 27.9496H133.451V1.73863Z" fill="#C72222"/>
<path d="M5.89081 4.39471V12.7539H7.93787C9.32611 12.7539 10.4438 12.3643 11.2908 11.585C12.1614 10.8058 12.5967 9.80219 12.5967 8.57429C12.5967 7.29917 12.1379 6.28379 11.2202 5.52816C10.3261 4.77253 9.22022 4.39471 7.90258 4.39471H5.89081ZM2.00846 26.8511V1.2069H7.47905C10.3732 1.2069 12.5732 1.89169 14.079 3.26127C15.5849 4.60723 16.3379 6.34282 16.3379 8.46803C16.3379 10.2154 15.8085 11.7149 14.7496 12.9664C13.6908 14.1943 12.2438 14.9617 10.4085 15.2687L18.279 25.7177L14.7143 27.347L5.9614 15.1624H5.89081V26.5677L2.00846 26.8511Z" fill="white"/>
<path d="M19.6555 26.8511V1.34858L23.5379 1.06521V26.5677L19.6555 26.8511Z" fill="white"/>
<path d="M43.3266 1.06521L44.0325 5.03227C42.903 4.46555 41.6089 4.18219 40.1501 4.18219C38.9972 4.18219 37.8442 4.39471 36.6913 4.81975C35.5383 5.22118 34.4795 5.84694 33.5148 6.69703C32.5736 7.5235 31.8207 8.55068 31.256 9.77858C30.6913 10.9829 30.4089 12.3524 30.4089 13.8873C30.4089 15.2569 30.6677 16.5438 31.1854 17.7481C31.703 18.9524 32.4207 20.0032 33.3383 20.9005C34.2795 21.7978 35.3854 22.4944 36.656 22.9903C37.9266 23.4862 39.2913 23.7341 40.7501 23.7341C41.7619 23.7341 42.856 23.5806 44.0325 23.2737L43.3266 27.1699C42.456 27.288 41.456 27.347 40.3266 27.347C38.1854 27.347 36.2442 27.0164 34.503 26.3552C32.7854 25.6704 31.3266 24.7259 30.1266 23.5216C28.9501 22.2937 28.056 20.8651 27.4442 19.2358C26.8324 17.6064 26.5266 15.8709 26.5266 14.029C26.5266 12.1399 26.8324 10.3807 27.4442 8.75139C28.0795 7.09845 28.9736 5.65803 30.1266 4.43013C31.303 3.20223 32.7148 2.25769 34.3619 1.59652C36.0089 0.911727 37.8089 0.569332 39.7619 0.569332C40.4442 0.569332 41.103 0.616559 41.7383 0.711013C42.3736 0.781854 42.903 0.899921 43.3266 1.06521Z" fill="white"/>
<path d="M64.0834 26.8511V15.3395H50.3187V26.5677L46.4363 26.8511V1.34858L50.3187 1.06521V12.0101H64.0834V1.34858L67.9657 1.06521V26.5677L64.0834 26.8511Z" fill="white"/>
<path d="M80.3074 27.6658L69.0132 1.2069H73.1779L80.3074 18.3503L87.7544 1.2069H91.7779L80.3074 27.6658Z" fill="white"/>
<path d="M92.8288 26.8511V1.34858L96.7111 1.06521V26.5677L92.8288 26.8511Z" fill="white"/>
<path d="M100.653 26.7094V1.34858L104.535 1.06521V23.0966H116.006L114.523 26.7094H100.653Z" fill="white"/>
<path d="M117.645 26.7094V1.34858L121.527 1.06521V23.0966H132.998L131.516 26.7094H117.645Z" fill="white"/>
<path d="M134.637 26.7094V1.2069H147.131L148.049 4.67807H138.519V12.0101H146.178V15.3395H138.519V23.2383H149.284L147.802 26.7094H134.637Z" fill="white"/>
<path fill-rule="evenodd" clip-rule="evenodd" d="M11.0559 11.3207C11.8473 10.6123 12.2438 9.70682 12.2438 8.57429C12.2438 7.39669 11.8259 6.48509 10.9963 5.80198L10.9929 5.79911C10.1705 5.10412 9.14829 4.74891 7.90258 4.74891H6.24375V12.3997H7.93787C9.25717 12.3997 10.2833 12.0313 11.0523 11.3239L11.0559 11.3207ZM5.89081 12.7539V4.39471H7.90258C9.22022 4.39471 10.3261 4.77253 11.2202 5.52816C12.1379 6.28379 12.5967 7.29917 12.5967 8.57429C12.5967 9.80219 12.1614 10.8058 11.2908 11.585C10.4438 12.3643 9.32611 12.7539 7.93787 12.7539H5.89081ZM1.65552 27.232V0.852693H7.47905C10.4232 0.852693 12.7212 1.54898 14.3149 2.9978C15.8994 4.41456 16.6908 6.24806 16.6908 8.46803C16.6908 10.2936 16.1353 11.8758 15.0187 13.1956L15.0165 13.1982C14.0088 14.3668 12.6735 15.133 11.0304 15.5071L18.8263 25.8568L14.5973 27.7897L6.24375 16.1612V26.8971L1.65552 27.232ZM5.89081 15.1624H5.9614L14.7143 27.347L18.279 25.7177L10.4085 15.2687C10.5396 15.2468 10.6688 15.2225 10.796 15.1958C12.4486 14.8497 13.7665 14.1065 14.7496 12.9664C15.8085 11.7149 16.3379 10.2154 16.3379 8.46803C16.3379 6.34282 15.5849 4.60723 14.079 3.26127C12.5732 1.89169 10.3732 1.2069 7.47905 1.2069H2.00846V26.8511L5.89081 26.5677V15.1624ZM19.3026 27.232V1.0192L23.8908 0.684317V26.8971L19.3026 27.232ZM43.6392 0.807176L44.5035 5.66465L43.8746 5.34908C42.8013 4.81051 41.5626 4.53639 40.1501 4.53639C39.0413 4.53639 37.9295 4.74061 36.813 5.15223L36.807 5.15444C35.6994 5.54009 34.6799 6.14172 33.7477 6.96319C32.8466 7.75444 32.122 8.74071 31.5764 9.92701L31.5753 9.9294C31.0359 11.0798 30.7619 12.3966 30.7619 13.8873C30.7619 15.2108 31.0117 16.4498 31.5095 17.6078C32.0089 18.7697 32.6998 19.7812 33.5829 20.6452C34.4889 21.5085 35.5546 22.1804 36.7839 22.6602C38.0109 23.1391 39.3319 23.3799 40.7501 23.3799C41.7266 23.3799 42.7906 23.2317 43.9436 22.9309L44.4786 22.7913L43.6279 27.4864L43.3738 27.5209C42.4839 27.6416 41.4676 27.7012 40.3266 27.7012C38.149 27.7012 36.1647 27.3649 34.3781 26.6865L34.3727 26.6845C32.6144 25.9834 31.1139 25.0134 29.877 23.7721L29.8721 23.7672C28.6617 22.5039 27.7422 21.0339 27.1139 19.3607C26.4863 17.6891 26.1736 15.911 26.1736 14.029C26.1736 12.1009 26.486 10.299 27.1139 8.6265L27.1149 8.62392C27.7658 6.93034 28.6838 5.45019 29.8697 4.18722L29.8722 4.18463C31.0845 2.91933 32.5382 1.94741 34.2288 1.26845C35.922 0.564781 37.7678 0.21513 39.7619 0.21513C40.4582 0.21513 41.1322 0.26317 41.7837 0.359692C42.4354 0.432759 42.9949 0.555744 43.4545 0.735096L43.6392 0.807176ZM41.7383 0.711013C41.103 0.616559 40.4442 0.569332 39.7619 0.569332C37.8089 0.569332 36.0089 0.911727 34.3619 1.59652C32.7148 2.25769 31.303 3.20223 30.1266 4.43013C28.9736 5.65803 28.0795 7.09845 27.4442 8.75139C26.8324 10.3807 26.5266 12.1399 26.5266 14.029C26.5266 15.8709 26.8324 17.6064 27.4442 19.2358C28.056 20.8651 28.9501 22.2937 30.1266 23.5216C31.3266 24.7259 32.7854 25.6704 34.503 26.3552C36.2442 27.0164 38.1854 27.347 40.3266 27.347C41.456 27.347 42.456 27.288 43.3266 27.1699L44.0325 23.2737C43.9063 23.3066 43.7811 23.3377 43.6568 23.3671C42.6223 23.6118 41.6534 23.7341 40.7501 23.7341C39.2913 23.7341 37.9266 23.4862 36.656 22.9903C35.3854 22.4944 34.2795 21.7978 33.3383 20.9005C32.4207 20.0032 31.703 18.9524 31.1854 17.7481C30.6677 16.5438 30.4089 15.2569 30.4089 13.8873C30.4089 12.3524 30.6913 10.9829 31.256 9.77858C31.8207 8.55068 32.5736 7.5235 33.5148 6.69703C34.4795 5.84694 35.5383 5.22118 36.6913 4.81975C37.8442 4.39471 38.9972 4.18219 40.1501 4.18219C41.4434 4.18219 42.6072 4.40488 43.6415 4.85026C43.774 4.90728 43.9043 4.96795 44.0325 5.03227L43.3266 1.06521C42.903 0.899921 42.3736 0.781854 41.7383 0.711013ZM63.7304 27.232V15.6938H50.6716V26.8971L46.0834 27.232V1.0192L50.6716 0.684317V11.6559H63.7304V1.0192L68.3187 0.684317V26.8971L63.7304 27.232ZM64.0834 12.0101H50.3187V1.06521L46.4363 1.34858V26.8511L50.3187 26.5677V15.3395H64.0834V26.8511L67.9657 26.5677V1.06521L64.0834 1.34858V12.0101ZM80.3048 28.5594L68.4781 0.852693H73.4131L80.3144 17.4476L87.5233 0.852693H92.3164L80.3048 28.5594ZM80.3074 18.3503L73.1779 1.2069H69.0132L80.3074 27.6658L91.7779 1.2069H87.7544L80.3074 18.3503ZM92.4758 27.232V1.0192L97.0641 0.684317V26.8971L92.4758 27.232ZM100.3 27.0636V1.0192L104.888 0.684317V22.7424H116.533L114.76 27.0636H100.3ZM104.535 23.0966V1.06521L100.653 1.34858V26.7094H114.523L116.006 23.0966H104.535ZM117.292 27.0636V1.0192L121.88 0.684317V22.7424H133.525L131.752 27.0636H117.292ZM121.527 23.0966V1.06521L117.645 1.34858V26.7094H131.516L132.998 23.0966H121.527ZM134.284 27.0636V0.852693H147.403L148.508 5.03228H138.872V11.6559H146.531V15.6938H138.872V22.884H149.819L148.035 27.0636H134.284ZM138.519 23.2383V15.3395H146.178V12.0101H138.519V4.67807H148.049L147.131 1.2069H134.637V26.7094H147.802L149.284 23.2383H138.519ZM19.6555 26.8511L23.5379 26.5677V1.06521L19.6555 1.34858V26.8511ZM92.8288 26.8511L96.7111 26.5677V1.06521L92.8288 1.34858V26.8511Z" fill="white"/>
</svg>
